<svg width="21" height="20" viewBox="0 0 21 20" xmlns="http://www.w3.org/2000/svg">
<g clip-path="url(#clip0_1431_7984)">
<path d="M5.67159 15.6731C5.94307 15.6731 6.1701 15.5808 6.35267 15.3962C6.53504 15.2117 6.62622 14.9829 6.62622 14.71C6.62622 14.4371 6.53442 14.2089 6.35081 14.0253C6.16719 13.8418 5.93965 13.75 5.66817 13.75C5.39669 13.75 5.16966 13.8423 4.98708 14.0269C4.80472 14.2115 4.71353 14.4402 4.71353 14.7131C4.71353 14.986 4.80534 15.2143 4.98895 15.3978C5.17256 15.5814 5.40011 15.6731 5.67159 15.6731ZM5.67159 10.9616C5.94307 10.9616 6.1701 10.8693 6.35267 10.6847C6.53504 10.5001 6.62622 10.2714 6.62622 9.99844C6.62622 9.72552 6.53442 9.49729 6.35081 9.31375C6.16719 9.13021 5.93965 9.03844 5.66817 9.03844C5.39669 9.03844 5.16966 9.13073 4.98708 9.31531C4.80472 9.4999 4.71353 9.72865 4.71353 10.0016C4.71353 10.2745 4.80534 10.5027 4.98895 10.6862C5.17256 10.8698 5.40011 10.9616 5.67159 10.9616ZM5.67159 6.25C5.94307 6.25 6.1701 6.15771 6.35267 5.97313C6.53504 5.78854 6.62622 5.55979 6.62622 5.28687C6.62622 5.01396 6.53442 4.78573 6.35081 4.60219C6.16719 4.41865 5.93965 4.32688 5.66817 4.32688C5.39669 4.32688 5.16966 4.41917 4.98708 4.60375C4.80472 4.78833 4.71353 5.01708 4.71353 5.29C4.71353 5.56292 4.80534 5.79115 4.98895 5.97469C5.17256 6.15823 5.40011 6.25 5.67159 6.25ZM9.49573 15.3366H16.1912V14.0866H9.49573V15.3366ZM9.49573 10.625H16.1912V9.375H9.49573V10.625ZM9.49573 5.91344H16.1912V4.66344H9.49573V5.91344ZM2.56148 20C1.98909 20 1.5112 19.8073 1.12782 19.4219C0.744428 19.0365 0.552734 18.556 0.552734 17.9806V2.01937C0.552734 1.44396 0.744428 0.963542 1.12782 0.578125C1.5112 0.192708 1.98909 0 2.56148 0H18.4387C19.0111 0 19.489 0.192708 19.8724 0.578125C20.2558 0.963542 20.4475 1.44396 20.4475 2.01937V17.9806C20.4475 18.556 20.2558 19.0365 19.8724 19.4219C19.489 19.8073 19.0111 20 18.4387 20H2.56148ZM2.56148 18.75H18.4387C18.6302 18.75 18.8056 18.6699 18.965 18.5097C19.1244 18.3495 19.2041 18.1731 19.2041 17.9806V2.01937C19.2041 1.82687 19.1244 1.65052 18.965 1.49031C18.8056 1.3301 18.6302 1.25 18.4387 1.25H2.56148C2.36999 1.25 2.19457 1.3301 2.0352 1.49031C1.87584 1.65052 1.79616 1.82687 1.79616 2.01937V17.9806C1.79616 18.1731 1.87584 18.3495 2.0352 18.5097C2.19457 18.6699 2.36999 18.75 2.56148 18.75Z"/>
</g>
<defs>
<clipPath id="clip0_1431_7984">
<rect width="21" height="20" />
</clipPath>
</defs>
</svg>
