<svg width="24" height="24" viewBox="0 0 24 24" fill="none" xmlns="http://www.w3.org/2000/svg">
<g clip-path="url(#clip0_1431_7988)">
<path d="M23.9871 15.0205C23.9273 13.6454 23.6882 12.1209 23.3295 10.686C22.9708 9.31093 22.5224 8.02553 21.9843 7.03906C19.8918 3.36221 17.6199 3.93018 14.8996 4.64761C14.0327 4.85687 13.1061 5.09601 12.1495 5.18569H11.8505C10.894 5.09601 9.96728 4.85687 9.10038 4.64761C6.38012 3.96007 4.10825 3.36221 2.01573 7.06895C1.47766 8.05542 0.99937 9.34082 0.670547 10.7159C0.31183 12.1508 0.0726859 13.6753 0.0128998 15.0504C-0.0468863 16.5749 0.102579 17.681 0.431402 18.4582C0.760226 19.1756 1.23851 19.624 1.86627 19.8034C2.43424 19.9529 3.09188 19.8931 3.77942 19.5941C4.94525 19.1158 6.29044 18.0995 7.60573 16.8739C8.53242 15.9771 10.2662 15.5287 12 15.5287C13.7338 15.5287 15.4676 15.9771 16.3943 16.8739C17.7096 18.0995 19.0548 19.1158 20.2206 19.5941C20.9081 19.8632 21.5658 19.9529 22.1337 19.8034C22.7316 19.624 23.2398 19.2055 23.5686 18.4283C23.8974 17.681 24.0469 16.5749 23.9871 15.0205ZM22.5523 18.0098C22.3729 18.4283 22.1337 18.6675 21.8348 18.7571C21.506 18.8468 21.0875 18.787 20.6092 18.6077C19.5629 18.1892 18.3373 17.2625 17.1416 16.1265C16.0057 14.9906 14.0028 14.4226 12 14.4226C9.99717 14.4226 7.99434 14.9906 6.82851 16.0668C5.6029 17.2027 4.37728 18.1593 3.36092 18.5479C2.88263 18.7272 2.46413 18.8169 2.13531 18.6973C1.83638 18.6077 1.59723 18.3685 1.41787 17.95C1.17873 17.3821 1.05916 16.4554 1.11894 15.0803C1.17873 13.7949 1.38798 12.3301 1.7467 10.955C2.07552 9.66964 2.49402 8.47392 3.0022 7.57713C4.64632 4.61772 6.55947 5.09601 8.83135 5.69387C9.75803 5.93302 10.7146 6.17216 11.7609 6.26184C11.7908 6.26184 11.7908 6.26184 11.8207 6.26184H12.1495C12.1794 6.26184 12.1794 6.26184 12.2093 6.26184C13.2854 6.17216 14.242 5.93302 15.1687 5.69387C17.4405 5.1259 19.3537 4.61772 20.9978 7.57713C21.506 8.47392 21.9245 9.63975 22.2533 10.955C22.5821 12.3301 22.8213 13.765 22.8811 15.0803C22.9409 16.4554 22.8213 17.3821 22.5523 18.0098Z" fill="#5A5E61"/>
<path d="M9.24976 9.19017C8.95083 8.92113 8.59212 8.71188 8.17361 8.68199C8.14372 8.29338 7.96436 7.90477 7.69533 7.63573L7.66543 7.60584C7.33661 7.27701 6.91811 7.09766 6.43982 7.09766C5.96153 7.09766 5.51313 7.30691 5.2142 7.60584C4.94517 7.87487 4.73591 8.26348 4.70602 8.68199C4.28752 8.71188 3.9288 8.89124 3.62987 9.16028L3.59998 9.19017C3.27116 9.51899 3.0918 9.93749 3.0918 10.4158C3.0918 10.8941 3.30105 11.3425 3.59998 11.6414C3.89891 11.9403 4.25763 12.1197 4.70602 12.1496C4.73591 12.5681 4.91527 12.9567 5.2142 13.2257C5.54303 13.5546 5.96153 13.7339 6.43982 13.7339C6.91811 13.7339 7.3665 13.5247 7.66543 13.2257C7.93447 12.9268 8.14372 12.5681 8.17361 12.1496C8.59212 12.1197 8.98073 11.9403 9.24976 11.6414C9.57859 11.3126 9.75794 10.8941 9.75794 10.4158C9.75794 9.93749 9.54869 9.4891 9.24976 9.19017ZM8.50244 10.8642C8.38287 10.9838 8.2334 11.0435 8.05404 11.0435H7.63554C7.33661 11.0435 7.06757 11.2827 7.06757 11.6115V12.0001C7.06757 12.1795 7.00778 12.3289 6.88821 12.4485C6.76864 12.5681 6.61918 12.6279 6.43982 12.6279C6.26046 12.6279 6.11099 12.5681 5.99142 12.4485C5.87185 12.3289 5.81206 12.1795 5.81206 12.0001V11.5816C5.81206 11.2827 5.57292 11.0136 5.2441 11.0136H4.82559C4.64623 11.0136 4.49677 10.9539 4.3772 10.8343C4.28752 10.7446 4.19784 10.5951 4.19784 10.4158C4.19784 10.2364 4.25763 10.087 4.3772 9.96739C4.3772 9.96739 4.3772 9.96739 4.40709 9.9375C4.52666 9.84782 4.67613 9.78803 4.82559 9.78803H5.2441C5.54303 9.78803 5.81206 9.54889 5.81206 9.22006V8.80156C5.81206 8.6222 5.87185 8.47274 5.99142 8.35316C6.11099 8.23359 6.26046 8.17381 6.43982 8.17381C6.61918 8.17381 6.76864 8.23359 6.88821 8.35316C6.88821 8.35316 6.88821 8.35316 6.91811 8.38306C7.00778 8.50263 7.06757 8.65209 7.06757 8.80156V9.22006C7.06757 9.51899 7.30672 9.78803 7.63554 9.78803H8.05404C8.2334 9.78803 8.38287 9.84782 8.50244 9.96739C8.62201 10.087 8.6818 10.2364 8.6818 10.4158C8.6818 10.5951 8.62201 10.7446 8.50244 10.8642Z" fill="#5A5E61"/>
<path d="M17.2006 9.34056C17.7784 9.34056 18.2468 8.87213 18.2468 8.2943C18.2468 7.71647 17.7784 7.24805 17.2006 7.24805C16.6227 7.24805 16.1543 7.71647 16.1543 8.2943C16.1543 8.87213 16.6227 9.34056 17.2006 9.34056Z" fill="#5A5E61"/>
<path d="M17.2006 13.5847C17.7784 13.5847 18.2468 13.1163 18.2468 12.5384C18.2468 11.9606 17.7784 11.4922 17.2006 11.4922C16.6227 11.4922 16.1543 11.9606 16.1543 12.5384C16.1543 13.1163 16.6227 13.5847 17.2006 13.5847Z" fill="#5A5E61"/>
<path d="M15.0795 11.4617C15.6573 11.4617 16.1257 10.9932 16.1257 10.4154C16.1257 9.83757 15.6573 9.36914 15.0795 9.36914C14.5016 9.36914 14.0332 9.83757 14.0332 10.4154C14.0332 10.9932 14.5016 11.4617 15.0795 11.4617Z" fill="#5A5E61"/>
<path d="M19.3236 11.4617C19.9014 11.4617 20.3699 10.9932 20.3699 10.4154C20.3699 9.83757 19.9014 9.36914 19.3236 9.36914C18.7458 9.36914 18.2773 9.83757 18.2773 10.4154C18.2773 10.9932 18.7458 11.4617 19.3236 11.4617Z" fill="#5A5E61"/>
</g>
<defs>
<clipPath id="clip0_1431_7988">
<rect width="24" height="24" fill="white"/>
</clipPath>
</defs>
</svg>
