<svg width="24" height="24" viewBox="0 0 24 24" fill="none" xmlns="http://www.w3.org/2000/svg">
<path d="M18.375 23.9965H5.625C2.52338 23.9965 0 21.4731 0 18.3715V10.4838C0 8.74049 0.827578 7.0685 2.21372 6.01124L8.58872 1.14894C10.5973 -0.38298 13.4027 -0.38298 15.4113 1.14894L17.4375 2.693V1.49652C17.487 0.252645 19.2634 0.253582 19.3125 1.49652V4.5861C19.3125 4.94249 19.1104 5.26804 18.791 5.42624C18.4716 5.58439 18.0902 5.54774 17.8067 5.33179L14.2745 2.64008C12.9352 1.61858 11.0648 1.61858 9.72577 2.63985L3.35077 7.50214C2.42672 8.20691 1.875 9.32155 1.875 10.4838V18.3715C1.875 20.4393 3.55725 22.1215 5.625 22.1215H18.375C20.4427 22.1215 22.125 20.4393 22.125 18.3715V10.4838C22.125 9.3073 21.5795 8.18886 20.6658 7.49193C20.2541 7.17791 20.175 6.58963 20.489 6.17797C20.803 5.76627 21.3913 5.6871 21.8029 6.00111C23.1787 7.05036 24 8.72614 24 10.4838V18.3715C24 21.4731 21.4766 23.9965 18.375 23.9965ZM10.125 10.8246C9.4778 10.8246 8.95312 11.3493 8.95312 11.9965C9.01505 13.5514 11.2355 13.5502 11.2969 11.9965C11.2969 11.3493 10.7722 10.8246 10.125 10.8246ZM15.0469 11.9965C14.985 13.5513 12.7645 13.5501 12.7031 11.9965C12.765 10.4416 14.9855 10.4428 15.0469 11.9965ZM11.2969 15.7465C11.235 17.3013 9.01448 17.3001 8.95312 15.7465C9.01505 14.1916 11.2355 14.1928 11.2969 15.7465ZM15.0469 15.7465C14.985 17.3013 12.7645 17.3001 12.7031 15.7465C12.765 14.1916 14.9855 14.1928 15.0469 15.7465Z" fill="white"/>
</svg>
