<svg width="23" height="23" viewBox="0 0 23 23" xmlns="http://www.w3.org/2000/svg">
<path d="M21.9333 6.53333H15.4V0.466667C15.4 0.208952 15.1913 0 14.9333 0H7.46667C7.20872 0 7 0.208952 7 0.466667V10.2667H0.466667C0.208724 10.2667 0 10.4756 0 10.7333V21.9333C0 22.191 0.208724 22.4 0.466667 22.4H7.46667H14.9333H21.9333C22.1913 22.4 22.4 22.191 22.4 21.9333V7C22.4 6.74229 22.1913 6.53333 21.9333 6.53333ZM0.933333 11.2H7V21.4667H0.933333V11.2ZM7.93333 10.7333V0.933333H14.4667V7V21.4667H7.93333V10.7333ZM21.4667 21.4667H15.4V7.46667H21.4667V21.4667Z" />
</svg>
