<svg width="81" height="23" viewBox="0 0 81 23" fill="none" xmlns="http://www.w3.org/2000/svg">
<path d="M10.528 12.48L9.056 22.4H5.888L4.448 12.48C4.256 11.168 4.032 9.184 3.84 7.552C3.872 9.12 3.904 10.976 3.904 12.48V22.4H0V0H6.24L7.328 8.672C7.488 9.856 7.552 11.168 7.648 12.48C7.744 11.168 7.808 9.856 7.968 8.672L9.056 0L11.168 0L11.104 22.4V12.48C11.104 10.976 11.136 9.056 11.168 7.456C10.944 9.12 10.72 11.2 10.528 12.48Z" fill="white"/>
<path d="M15.7418 4.736V22.4H11.7098V4.736H15.7418ZM11.7098 3.328V0H15.7418V3.328H11.7098Z" fill="white"/>
<path d="M23.2578 22.4L21.4338 13.728C21.1137 12.16 20.8898 10.688 20.6978 9.12C20.7298 10.72 20.7938 12.16 20.7938 13.728V22.4H16.9538V0H22.3298L23.7698 7.584C24.0578 9.12 24.2178 10.624 24.4098 12.192C24.3778 10.592 24.3138 9.12 24.3138 7.584V0H28.1858V22.4H23.2578Z" fill="white"/>
<path d="M29.5095 22.4V0H36.0695C39.5895 0 40.4855 1.12 40.4855 4.96V17.44C40.4855 21.28 39.5895 22.4 36.0695 22.4H29.5095ZM33.9895 18.176H35.1735C35.9095 18.176 36.0055 17.856 36.0055 16.896V5.504C36.0055 4.544 35.9095 4.224 35.1735 4.224H33.9895V18.176Z" fill="white"/>
<path d="M65.9152 22.4L64.0912 13.728C63.7712 12.16 63.5472 10.688 63.3552 9.12C63.3872 10.72 63.4512 12.16 63.4512 13.728V22.4H59.6113V0H64.9873L66.4272 7.584C66.7152 9.12 66.8752 10.624 67.0672 12.192C67.0352 10.592 66.9713 9.12 66.9713 7.584V0H70.8432V22.4H65.9152Z" fill="white"/>
<path d="M78.247 22.4H73.767V4.192H71.399V0H80.615V4.192H78.247V22.4Z" fill="white"/>
<path d="M52.4517 12.48L50.9797 22.4H47.8117L46.3717 12.48C46.1797 11.168 45.9557 9.184 45.7637 7.552C45.7957 9.12 45.8277 10.976 45.8277 12.48V22.4H41.9237V0H48.1637L49.2517 8.672C49.4117 9.856 49.4757 11.168 49.5717 12.48C49.6677 11.168 49.7317 9.856 49.8917 8.672L50.9797 0L53.0917 0L53.0277 22.4V12.48C53.0277 10.976 53.0597 9.056 53.0917 7.456C52.8677 9.12 52.6437 11.2 52.4517 12.48Z" fill="white"/>
<path d="M57.6655 4.736V22.4H53.6335V4.736H57.6655ZM53.6335 3.328V0H57.6655V3.328H53.6335Z" fill="white"/>
</svg>
