<svg width="230" height="231" viewBox="0 0 230 231" fill="none" xmlns="http://www.w3.org/2000/svg">
<mask id="mask0_39_24" style="mask-type:luminance" maskUnits="userSpaceOnUse" x="0" y="3" width="230" height="225">
<path d="M230 3.64319H0V227.348H230V3.64319Z" fill="white"/>
</mask>
<g mask="url(#mask0_39_24)">
<path d="M228.583 116.24C228.753 55.3154 179.716 5.7881 119.055 5.61751C58.3945 5.44693 9.08165 54.6978 8.91182 115.622C8.74195 176.546 57.7795 226.074 118.44 226.245C179.101 226.415 228.414 177.164 228.583 116.24Z" fill="#AB3B3C"/>
<path d="M228.165 125.268C227.951 127.809 227.683 130.335 227.302 132.823H10.1944C9.81431 130.333 9.54558 127.809 9.33252 125.268H228.165ZM52.5266 203.935C56.1436 206.685 59.9447 209.198 63.8934 211.49H173.603C177.55 209.198 181.353 206.685 184.971 203.935H52.5266ZM219.874 159.045C220.921 156.574 221.85 154.048 222.719 151.49H14.7775C15.6443 154.048 16.5763 156.576 17.6223 159.045H219.874ZM204.157 185.267C206.123 182.828 207.999 180.316 209.754 177.712H27.7423C29.4975 180.316 31.3738 182.828 33.3398 185.267H204.157ZM228.165 106.603C227.951 104.062 227.683 101.538 227.302 99.0482H10.1944C9.81431 101.538 9.54558 104.062 9.33252 106.603H228.165ZM63.8934 20.3817C59.9447 22.6722 56.1436 25.1865 52.5266 27.9366H184.968C181.35 25.1865 177.55 22.6722 173.601 20.3817H63.8934ZM33.3398 46.6039C31.3738 49.0427 29.4975 51.5546 27.7423 54.1588H209.754C207.999 51.5546 206.123 49.0427 204.157 46.6039H33.3398ZM222.719 80.381C221.852 77.8229 220.921 75.2941 219.874 72.826H17.6223C16.5763 75.2965 15.6467 77.8229 14.7775 80.381H222.719Z" fill="#8E3C3C"/>
<path d="M189.414 193.886C232.308 150.807 232.308 80.9612 189.414 37.8817C146.522 -5.19795 76.978 -5.19795 34.0846 37.8817C-8.80848 80.9612 -8.80848 150.807 34.0846 193.886C76.978 236.967 146.522 236.967 189.414 193.886Z" fill="#CA8663"/>
<path d="M111.756 7.88682C51.4817 7.88682 2.55474 56.6522 1.93495 117.043C1.9301 116.656 1.92041 116.272 1.92041 115.886C1.92041 54.9622 51.0943 5.57196 111.756 5.57196C172.418 5.57196 221.592 54.9597 221.592 115.886C221.592 116.272 221.582 116.656 221.577 117.043C220.96 56.6522 172.033 7.88682 111.756 7.88682Z" fill="#CA9A69"/>
<path d="M4.89426 90.439C5.40026 88.2895 5.9571 86.1618 6.58416 84.061L88.8829 106.208L15.1135 63.4314C16.1595 61.4935 17.2755 59.5993 18.4304 57.7343L92.1708 100.494L32.0124 40.0737C33.5183 38.4762 35.0702 36.9223 36.6681 35.4173L96.8167 95.8273L54.3006 21.8684C56.1649 20.7183 58.0629 19.6216 59.9998 18.5809L102.509 92.5277L80.523 10.1239C82.6149 9.50142 84.7357 8.94702 86.8782 8.44855L108.854 90.8208V5.6449C109.823 5.62059 110.786 5.57196 111.762 5.57196C112.992 5.57196 114.207 5.62544 115.425 5.66435V90.8208L137.357 8.6139C139.495 9.12696 141.616 9.6886 143.703 10.3257L121.77 92.5277L164.107 18.88C166.037 19.9329 167.916 21.0588 169.772 22.221L127.46 95.8249L187.238 35.7869C188.829 37.2993 190.376 38.8579 191.874 40.4628L132.104 100.494L205.29 58.0553C206.44 59.9251 207.536 61.8291 208.575 63.7719L135.389 106.21L216.983 84.2507C217.608 86.3515 218.162 88.4791 218.663 90.6311L137.088 112.583H221.506C221.537 113.682 221.588 114.777 221.588 115.883C221.588 116.99 221.537 118.084 221.506 119.182H137.088L218.663 141.135C218.162 143.285 217.608 145.414 216.983 147.515L135.389 125.555L208.575 167.995C207.536 169.937 206.44 171.841 205.29 173.711L132.104 131.273L191.874 191.304C190.376 192.908 188.829 194.467 187.238 195.979L127.46 135.941L169.772 209.545C167.916 210.708 166.035 211.835 164.107 212.886L121.77 139.239L143.701 221.442C141.613 222.08 139.493 222.641 137.355 223.154L115.422 140.948V226.104C114.202 226.146 112.987 226.196 111.759 226.196C110.784 226.196 109.823 226.148 108.852 226.124V140.948L86.8758 223.32C84.7333 222.821 82.6124 222.267 80.5206 221.644L102.506 139.241L59.9973 213.188C58.0629 212.147 56.1624 211.053 54.2982 209.9L96.8142 135.939L36.6657 196.349C35.0678 194.844 33.5158 193.29 32.01 191.692L92.1683 131.273L18.4304 174.032C17.2755 172.167 16.1595 170.272 15.1135 168.334L88.8829 125.558L6.58416 147.705C5.95468 145.606 5.40026 143.476 4.89426 141.327L87.1833 119.182H2.00835C1.97688 118.084 1.92603 116.99 1.92603 115.883C1.92603 114.777 1.97688 113.682 2.00835 112.583H87.1833L4.89426 90.439Z" fill="#CA9A69"/>
<path d="M134.03 215.433C187.494 203.069 220.853 149.516 208.542 95.8213C196.231 42.1262 142.912 8.62105 89.4487 20.9856C35.9862 33.35 2.62595 86.9018 14.9369 140.597C27.2478 194.292 80.5679 227.797 134.03 215.433Z" fill="#CA9A69"/>
<path d="M181.991 186.431C220.783 147.469 220.783 84.3003 181.991 45.3392C143.198 6.37775 80.3025 6.37775 41.5098 45.3392C2.7171 84.3003 2.7171 147.469 41.5098 186.431C80.3025 225.392 143.198 225.392 181.991 186.431Z" fill="#B35C48"/>
<path d="M30.283 119.421C30.283 74.301 66.8336 37.5939 111.759 37.5939C156.684 37.5939 193.232 74.301 193.232 119.421C193.232 164.541 156.684 201.252 111.759 201.252C66.8336 201.252 30.283 164.545 30.283 119.421ZM34.5077 119.421C34.5077 162.202 69.1602 197.008 111.759 197.008C154.354 197.008 189.007 162.202 189.007 119.421C189.007 76.6402 154.354 41.8346 111.759 41.8346C69.1626 41.837 34.5077 76.6402 34.5077 119.421Z" fill="#AB3B3C"/>
<path d="M30.283 115.88C30.283 70.7594 66.8336 34.0522 111.759 34.0522C156.684 34.0522 193.232 70.7594 193.232 115.88C193.232 161 156.684 197.709 111.759 197.709C66.8336 197.709 30.283 161.002 30.283 115.88ZM34.5077 115.88C34.5077 158.661 69.1602 193.466 111.759 193.466C154.354 193.466 189.007 158.661 189.007 115.88C189.007 73.0985 154.354 38.2931 111.759 38.2931C69.1626 38.2955 34.5077 73.0985 34.5077 115.88Z" fill="#CA8663"/>
<path d="M111.757 23.1916C58.0769 23.1916 14.3674 65.963 12.5105 119.421C12.4693 118.244 12.4209 117.072 12.4209 115.886C12.4209 60.7862 56.8955 16.1182 111.757 16.1182C166.618 16.1182 211.093 60.7862 211.093 115.886C211.093 117.072 211.043 118.247 211.003 119.421C209.146 65.963 165.439 23.1916 111.757 23.1916Z" fill="#AB3B3C"/>
<g filter="url(#filter0_d_39_24)">
<path fill-rule="evenodd" clip-rule="evenodd" d="M134.321 165.812H154.553L142.07 64.4273H114.304L110.974 88.0171L108.176 65.1432H80.3364L67.7871 166.553H85.9619L87.4044 153.37H98.7999L100.156 164.641L99.991 165.812H100.297L100.387 166.553H120.581L120.067 162.35L123.128 134.575L127.004 79.5593L130.877 134.575L134.321 165.812ZM89.1355 135.406C90.8663 114.11 92.1645 96.1458 93.03 80.0651C93.8956 96.1458 95.1937 114.11 96.9248 135.406H89.1355Z" fill="#CA8663"/>
</g>
<mask id="mask1_39_24" style="mask-type:luminance" maskUnits="userSpaceOnUse" x="67" y="64" width="88" height="103">
<path fill-rule="evenodd" clip-rule="evenodd" d="M134.321 165.812H154.553L142.07 64.4273H114.304L110.974 88.0171L108.176 65.1432H80.3364L67.7871 166.553H85.9619L87.4044 153.37H98.7999L100.156 164.641L99.991 165.812H100.297L100.387 166.553H120.581L120.067 162.35L123.128 134.575L127.004 79.5593L130.877 134.575L134.321 165.812ZM89.1355 135.406C90.8663 114.11 92.1645 96.1458 93.03 80.0651C93.8956 96.1458 95.1937 114.11 96.9248 135.406H89.1355Z" fill="white"/>
</mask>
<g mask="url(#mask1_39_24)">
<path d="M154.553 165.809V167.026H155.923L155.755 165.661L154.553 165.809ZM134.321 165.809L133.118 165.943L133.238 167.026H134.321V165.809ZM142.07 64.425L143.272 64.2756L143.139 63.2092H142.07V64.425ZM114.304 64.425V63.2092H113.253L113.106 64.2543L114.304 64.425ZM110.974 88.0147L109.772 88.163L112.173 88.1854L110.974 88.0147ZM108.176 65.1409L109.377 64.9925L109.247 63.9251H108.176V65.1409ZM80.3366 65.1409V63.9251H79.2672L79.1353 64.9908L80.3366 65.1409ZM67.7873 166.551L66.586 166.401L66.417 167.767H67.7873V166.551ZM85.9622 166.551V167.767H87.0471L87.1654 166.684L85.9622 166.551ZM87.4046 153.368V152.153H86.3197L86.2014 153.235L87.4046 153.368ZM98.8001 153.368L100.002 153.222L99.873 152.153H98.8001V153.368ZM100.156 164.638L101.355 164.809L101.377 164.651L101.358 164.493L100.156 164.638ZM99.9912 165.809L98.7925 165.639L98.5969 167.026H99.9912V165.809ZM100.297 165.809L101.499 165.664L101.37 164.594H100.297V165.809ZM100.387 166.551L99.185 166.698L99.3138 167.767H100.387V166.551ZM120.581 166.551V167.767H121.949L121.783 166.403L120.581 166.551ZM120.067 162.348L118.864 162.214L118.848 162.356L118.865 162.497L120.067 162.348ZM123.129 134.573L124.332 134.707L124.335 134.682L124.337 134.659L123.129 134.573ZM127.004 79.557L128.211 79.4714H125.796L127.004 79.557ZM130.878 134.573L129.669 134.659L129.672 134.682L129.674 134.707L130.878 134.573ZM93.0302 80.0628L94.2391 79.997H91.8213L93.0302 80.0628ZM89.1357 135.404L87.929 135.305L87.8223 136.619H89.1357V135.404ZM96.9249 135.404V136.619H98.2381L98.1313 135.305L96.9249 135.404ZM154.553 164.594H134.321V167.026H154.553V164.594ZM140.868 64.5743L153.353 165.958L155.755 165.661L143.272 64.2756L140.868 64.5743ZM114.304 65.6407H142.07V63.2092H114.304V65.6407ZM112.173 88.1854L115.503 64.5957L113.106 64.2543L109.775 87.844L112.173 88.1854ZM106.974 65.2892L109.772 88.163L112.175 87.8664L109.377 64.9925L106.974 65.2892ZM80.3366 66.3566H108.176V63.9251H80.3366V66.3566ZM68.9886 166.701L81.5379 65.2907L79.1353 64.9908L66.586 166.401L68.9886 166.701ZM85.9622 165.336H67.7873V167.767H85.9622V165.336ZM86.2014 153.235L84.7589 166.418L87.1654 166.684L88.6079 153.501L86.2014 153.235ZM98.8001 152.153H87.4046V154.584H98.8001V152.153ZM101.358 164.493L100.002 153.222L97.5982 153.513L98.9547 164.784L101.358 164.493ZM101.19 165.98L101.355 164.809L98.9579 164.467L98.7925 165.639L101.19 165.98ZM100.297 164.594H99.9912V167.026H100.297V164.594ZM101.588 166.405L101.499 165.664L99.0956 165.955L99.185 166.698L101.588 166.405ZM120.581 165.336H100.387V167.767H120.581V165.336ZM118.865 162.497L119.379 166.7L121.783 166.403L121.269 162.2L118.865 162.497ZM121.926 134.44L118.864 162.214L121.27 162.482L124.332 134.707L121.926 134.44ZM125.796 79.4714L121.922 134.487L124.337 134.659L128.211 79.6428L125.796 79.4714ZM132.084 134.487L128.211 79.4714L125.796 79.6428L129.669 134.659L132.084 134.487ZM135.524 165.676L132.081 134.44L129.674 134.707L133.118 165.943L135.524 165.676ZM91.8213 79.997C90.9568 96.062 89.6596 114.014 87.929 135.305L90.3421 135.502C92.0734 114.201 93.3725 96.2249 94.2391 80.1284L91.8213 79.997ZM98.1313 135.305C96.4007 114.014 95.1035 96.062 94.2391 79.997L91.8213 80.1284C92.6878 96.2249 93.987 114.201 95.7183 135.502L98.1313 135.305ZM89.1357 136.619H96.9249V134.188H89.1357V136.619Z" fill="url(#paint0_linear_39_24)"/>
</g>
</g>
<defs>
<filter id="filter0_d_39_24" x="67.7871" y="64.4273" width="86.766" height="103.126" filterUnits="userSpaceOnUse" color-interpolation-filters="sRGB">
<feFlood flood-opacity="0" result="BackgroundImageFix"/>
<feColorMatrix in="SourceAlpha" type="matrix" values="0 0 0 0 0 0 0 0 0 0 0 0 0 0 0 0 0 0 127 0" result="hardAlpha"/>
<feOffset dy="1"/>
<feComposite in2="hardAlpha" operator="out"/>
<feColorMatrix type="matrix" values="0 0 0 0 0.670588 0 0 0 0 0.235294 0 0 0 0 0.231373 0 0 0 1 0"/>
<feBlend mode="normal" in2="BackgroundImageFix" result="effect1_dropShadow_39_24"/>
<feBlend mode="normal" in="SourceGraphic" in2="effect1_dropShadow_39_24" result="shape"/>
</filter>
<linearGradient id="paint0_linear_39_24" x1="111.17" y1="64.425" x2="111.17" y2="166.551" gradientUnits="userSpaceOnUse">
<stop offset="0.627707" stop-color="#D5A97B"/>
<stop offset="1" stop-color="#B55F49" stop-opacity="0.1"/>
</linearGradient>
</defs>
</svg>
