<svg width="31" height="31" viewBox="0 0 31 31" fill="none" xmlns="http://www.w3.org/2000/svg">
<g clip-path="url(#clip0_1425_2327)">
<path d="M12.9819 27.5605H7.77567C6.82454 28.2287 6.00025 28.9728 5.37977 29.7567C5.31401 29.8398 5.25117 29.9228 5.19141 30.0049H9.30708C9.36079 29.9233 9.42127 29.8402 9.48739 29.7567C10.2532 28.7891 11.6316 27.9534 12.9819 27.5605Z" fill="url(#paint0_linear_1425_2327)"/>
<path d="M12.9819 27.5605H7.77567C6.82454 28.2287 6.00025 28.9728 5.37977 29.7567C5.31401 29.8398 5.25117 29.9228 5.19141 30.0049H9.30708C9.36079 29.9233 9.42127 29.8402 9.48739 29.7567C10.2532 28.7891 11.6316 27.9534 12.9819 27.5605Z" fill="url(#paint1_linear_1425_2327)"/>
<path d="M9.79959 31.0008H5.14141C4.78988 31.0008 4.50488 30.7158 4.50488 30.3643C4.50488 30.0633 4.71565 29.8035 5.01015 29.7414L5.3457 29.6707C6.74687 29.3754 8.19425 29.3754 9.59536 29.6707L9.93091 29.7414C10.2254 29.8035 10.4362 30.0634 10.4362 30.3643C10.4362 30.7158 10.1512 31.0008 9.79959 31.0008Z" fill="url(#paint2_linear_1425_2327)"/>
<path d="M9.79982 31.0008C10.1514 31.0008 10.4364 30.7158 10.4364 30.3643C10.4364 30.0633 10.2256 29.8035 9.93109 29.7414L9.59554 29.6707C8.89495 29.523 8.18279 29.4492 7.4707 29.4492V31.0009L9.79982 31.0008Z" fill="url(#paint3_linear_1425_2327)"/>
<path d="M4.50488 30.3642C4.50488 30.7157 4.78988 31.0007 5.14141 31.0007H9.79959C10.1511 31.0007 10.4361 30.7157 10.4361 30.3642C10.4361 30.1812 10.3579 30.0138 10.2307 29.8965H4.71032C4.58305 30.0138 4.50488 30.1812 4.50488 30.3642Z" fill="url(#paint4_linear_1425_2327)"/>
<path d="M21.513 29.7567C21.5791 29.8402 21.6396 29.9233 21.6933 30.0049H25.809C25.7492 29.9228 25.6864 29.8398 25.6206 29.7567C25.0002 28.9727 24.1759 28.2287 23.2247 27.5605H18.0186C19.3688 27.9534 20.7472 28.7891 21.513 29.7567Z" fill="url(#paint5_linear_1425_2327)"/>
<path d="M21.513 29.7567C21.5791 29.8402 21.6396 29.9233 21.6933 30.0049H25.809C25.7492 29.9228 25.6864 29.8398 25.6206 29.7567C25.0002 28.9727 24.1759 28.2287 23.2247 27.5605H18.0186C19.3688 27.9534 20.7472 28.7891 21.513 29.7567Z" fill="url(#paint6_linear_1425_2327)"/>
<path d="M25.8592 31.0008H21.201C20.8494 31.0008 20.5645 30.7158 20.5645 30.3643C20.5645 30.0633 20.7752 29.8035 21.0697 29.7414L21.4053 29.6707C22.8064 29.3754 24.2538 29.3754 25.6549 29.6707L25.9905 29.7414C26.285 29.8035 26.4957 30.0634 26.4957 30.3643C26.4957 30.7158 26.2107 31.0008 25.8592 31.0008Z" fill="url(#paint7_linear_1425_2327)"/>
<path d="M25.8594 31.0008C26.2109 31.0008 26.4959 30.7158 26.4959 30.3643C26.4959 30.0633 26.2852 29.8035 25.9907 29.7414L25.6551 29.6707C24.9545 29.523 24.2424 29.4492 23.5303 29.4492V31.0008H25.8594Z" fill="url(#paint8_linear_1425_2327)"/>
<path d="M20.5645 30.3642C20.5645 30.7157 20.8494 31.0007 21.201 31.0007H25.8592C26.2107 31.0007 26.4957 30.7157 26.4957 30.3642C26.4957 30.1812 26.4175 30.0138 26.2902 29.8965H20.7699C20.6427 30.0138 20.5645 30.1812 20.5645 30.3642Z" fill="url(#paint9_linear_1425_2327)"/>
<path d="M22.9226 5.63588L21.4789 4.19214C21.1587 3.87197 20.9823 3.44621 20.9823 2.99332C20.9823 2.42575 20.5205 1.96396 19.953 1.96396H18.6335C17.63 1.96396 16.6865 1.57319 15.9769 0.86358C15.8494 0.736189 15.6801 0.666016 15.4999 0.666016C15.3198 0.666016 15.1505 0.736189 15.0231 0.86358C14.3135 1.57325 13.37 1.96402 12.3665 1.96402H11.047C10.4794 1.96402 10.0177 2.42581 10.0177 2.99338C10.0177 3.44621 9.84129 3.87203 9.52112 4.1922L8.07738 5.63594L7.60645 5.16507L9.05019 3.72133C9.2446 3.52686 9.35165 3.26838 9.35165 2.99344C9.35165 2.05865 10.1122 1.29806 11.047 1.29806H12.3665C13.1921 1.29806 13.9683 0.9765 14.5522 0.392707C14.8053 0.1395 15.1419 0 15.4999 0C15.858 0 16.1946 0.1395 16.4477 0.392646C17.0316 0.976439 17.8078 1.29794 18.6334 1.29794H19.9529C20.8878 1.29794 21.6483 2.05853 21.6483 2.99332C21.6483 3.26826 21.7554 3.52679 21.9498 3.72121L23.3935 5.16495L22.9226 5.63588Z" fill="url(#paint10_linear_1425_2327)"/>
<path d="M15.4998 30.6383C22.4939 30.6383 28.1637 24.9685 28.1637 17.9744C28.1637 10.9804 22.4939 5.31055 15.4998 5.31055C8.50574 5.31055 2.83594 10.9804 2.83594 17.9744C2.83594 24.9685 8.50574 30.6383 15.4998 30.6383Z" fill="url(#paint11_linear_1425_2327)"/>
<path d="M15.5 28.4747C21.2996 28.4747 26.001 23.7732 26.001 17.9737C26.001 12.1741 21.2996 7.47266 15.5 7.47266C9.70049 7.47266 4.99902 12.1741 4.99902 17.9737C4.99902 23.7732 9.70049 28.4747 15.5 28.4747Z" fill="url(#paint12_linear_1425_2327)"/>
<path d="M15.4998 30.6383C22.4939 30.6383 28.1637 24.9685 28.1637 17.9744C28.1637 10.9804 22.4939 5.31055 15.4998 5.31055C8.50574 5.31055 2.83594 10.9804 2.83594 17.9744C2.83594 24.9685 8.50574 30.6383 15.4998 30.6383Z" fill="url(#paint13_linear_1425_2327)"/>
<path d="M2.83594 17.9735C2.83594 24.9675 8.50573 30.6373 15.4998 30.6373C22.4939 30.6373 28.1637 24.9675 28.1637 17.9735C28.1637 16.4587 27.8968 15.0065 27.4091 13.6602H3.59047C3.10277 15.0065 2.83594 16.4588 2.83594 17.9735Z" fill="url(#paint14_linear_1425_2327)"/>
<path d="M6.54471 26.9298C11.4902 31.8753 19.5086 31.8753 24.4542 26.9298C29.3997 21.9842 29.3997 13.9658 24.4542 9.02029C23.3831 7.94922 22.1676 7.11107 20.8706 6.50391L4.02832 23.3462C4.63548 24.6431 5.47357 25.8586 6.54471 26.9298Z" fill="url(#paint15_linear_1425_2327)"/>
<path d="M15.5002 26.8521C20.403 26.8521 24.3775 22.8776 24.3775 17.9749C24.3775 13.0721 20.403 9.09766 15.5002 9.09766C10.5975 9.09766 6.62305 13.0721 6.62305 17.9749C6.62305 22.8776 10.5975 26.8521 15.5002 26.8521Z" fill="url(#paint16_linear_1425_2327)"/>
<path d="M24.3775 17.9749C24.3775 13.0721 20.403 9.09766 15.5002 9.09766C10.5975 9.09766 6.62305 13.0721 6.62305 17.9749C6.62305 19.0367 6.81008 20.0546 7.15198 20.9984H23.8485C24.1904 20.0546 24.3775 19.0367 24.3775 17.9749Z" fill="url(#paint17_linear_1425_2327)"/>
<path d="M21.7783 11.6977C18.3116 8.231 12.6909 8.23094 9.22407 11.6977C5.75734 15.1645 5.75734 20.7853 9.22407 24.252C9.97491 25.0028 10.8269 25.5903 11.736 26.016L23.5423 14.2098C23.1167 13.3006 22.5292 12.4486 21.7783 11.6977Z" fill="url(#paint18_linear_1425_2327)"/>
<path d="M23.9688 9.78653L27.124 12.9417C26.5328 11.5751 25.6887 10.292 24.5931 9.16211L23.9688 9.78653Z" fill="url(#paint19_linear_1425_2327)"/>
<path d="M29.2573 4.68962C31.4548 6.88711 31.5922 10.3126 29.5641 12.3406C27.536 14.3687 19.5783 6.41091 21.6063 4.38283C23.6343 2.35475 27.0598 2.49214 29.2573 4.68962Z" fill="url(#paint20_linear_1425_2327)"/>
<path d="M29.5645 12.3404C31.5925 10.3124 31.4552 6.88693 29.2577 4.68944C28.6335 4.06521 27.91 3.60765 27.1476 3.31836L22.4619 8.00408C24.419 10.7545 28.2455 13.6595 29.5645 12.3404Z" fill="url(#paint21_linear_1425_2327)"/>
<path d="M21.6061 4.38281C21.5804 4.40842 21.5576 4.43561 21.5352 4.46303L29.4836 12.4115C29.5111 12.389 29.5382 12.3662 29.5639 12.3406C31.5919 10.3126 31.4546 6.88709 29.2571 4.6896C27.0596 2.49211 23.6341 2.35479 21.6061 4.38281Z" fill="url(#paint22_linear_1425_2327)"/>
<path d="M1.74236 4.6896C-0.45513 6.88709 -0.592511 10.3125 1.43557 12.3406C3.46365 14.3687 11.4214 6.41083 9.39336 4.38281C7.36535 2.35479 3.93985 2.49211 1.74236 4.6896Z" fill="url(#paint23_linear_1425_2327)"/>
<path d="M1.43554 12.3404C-0.592474 10.3124 -0.455154 6.88693 1.74233 4.68944C2.36657 4.06521 3.09005 3.60765 3.85239 3.31836L8.53812 8.00408C6.58106 10.7545 2.75456 13.6595 1.43554 12.3404Z" fill="url(#paint24_linear_1425_2327)"/>
<path d="M9.39334 4.38281C9.41895 4.40842 9.44184 4.43561 9.46424 4.46303L1.51577 12.4115C1.48834 12.389 1.46115 12.3662 1.43554 12.3406C-0.592474 10.3126 -0.455154 6.88709 1.74233 4.6896C3.93982 2.49211 7.36526 2.35479 9.39334 4.38281Z" fill="url(#paint25_linear_1425_2327)"/>
<path d="M7.81934 18.2168L16.4075 26.8049C18.2732 26.6143 20.0897 25.8341 21.5557 24.4644L15.308 18.2168H7.81934Z" fill="url(#paint26_linear_1425_2327)"/>
<path d="M15.4239 17.9741C15.4239 17.8018 15.2843 17.6621 15.112 17.6621H8.0161C7.84378 17.6621 7.7041 17.8018 7.7041 17.9741C7.7041 18.1464 7.84378 18.2861 8.0161 18.2861H15.112C15.2843 18.2861 15.4239 18.1464 15.4239 17.9741Z" fill="url(#paint27_linear_1425_2327)"/>
<path d="M14.7148 18.7587L17.3541 21.398C17.7868 21.8307 18.4938 21.8487 18.9296 21.4193C18.9353 21.4137 18.941 21.408 18.9466 21.4023C19.376 20.9664 19.358 20.2595 18.9253 19.8268L16.286 17.1875L14.7148 18.7587Z" fill="url(#paint28_linear_1425_2327)"/>
<path d="M14.7148 18.7604L20.9431 24.9887C21.2327 24.7635 21.5115 24.518 21.7776 24.252C24.6213 21.4082 25.1318 17.1153 23.3101 13.7507L21.4696 11.9102L14.7148 18.7604Z" fill="url(#paint29_linear_1425_2327)"/>
<path d="M15.5004 17.8608L15.1123 17.4727L16.9721 15.0509C17.6093 14.2212 18.6387 13.2993 20.2556 12.2645L20.9236 11.837C21.3093 11.5901 21.771 12.0519 21.5242 12.4375L21.0966 13.1055C20.0618 14.7225 19.1399 15.7519 18.3103 16.389L15.8884 18.2488L15.5004 17.8608Z" fill="url(#paint30_linear_1425_2327)"/>
<path d="M18.8609 15.9182L17.4427 14.5C17.2667 14.6879 17.1096 14.8715 16.9721 15.0506L15.1123 17.4724L15.5004 17.8605L15.8885 18.2486L18.3104 16.3888C18.4894 16.2513 18.673 16.0942 18.8609 15.9182Z" fill="url(#paint31_linear_1425_2327)"/>
<path d="M15.408 17.7683L15.7037 17.4727L17.5487 18.8895C18.1807 19.3749 18.883 20.1591 19.6713 21.3909L19.997 21.8998C20.185 22.1936 19.8333 22.5453 19.5394 22.3573L19.0305 22.0317C17.7988 21.2433 17.0146 20.541 16.5292 19.909L15.1123 18.064L15.408 17.7683Z" fill="url(#paint32_linear_1425_2327)"/>
<path d="M16.8886 20.3284L17.969 19.248C17.8258 19.1139 17.686 18.9943 17.5496 18.8895L15.7046 17.4727L15.4089 17.7683L15.1133 18.064L16.5301 19.9089C16.6348 20.0454 16.7545 20.1853 16.8886 20.3284Z" fill="url(#paint33_linear_1425_2327)"/>
<path d="M15.5005 10.1777C15.3282 10.1777 15.1885 10.3174 15.1885 10.4897V11.6926C15.1885 11.8649 15.3282 12.0046 15.5005 12.0046C15.6728 12.0046 15.8125 11.8649 15.8125 11.6926V10.4897C15.8125 10.3174 15.6728 10.1777 15.5005 10.1777Z" fill="url(#paint34_linear_1425_2327)"/>
<path d="M15.5005 23.9434C15.3282 23.9434 15.1885 24.083 15.1885 24.2554V25.4582C15.1885 25.6305 15.3282 25.7702 15.5005 25.7702C15.6728 25.7702 15.8125 25.6305 15.8125 25.4582V24.2554C15.8125 24.083 15.6728 23.9434 15.5005 23.9434Z" fill="url(#paint35_linear_1425_2327)"/>
<path d="M22.9845 17.6621H21.7817C21.6094 17.6621 21.4697 17.8018 21.4697 17.9741C21.4697 18.1464 21.6094 18.2861 21.7817 18.2861H22.9845C23.1569 18.2861 23.2965 18.1464 23.2965 17.9741C23.2965 17.8018 23.1569 17.6621 22.9845 17.6621Z" fill="url(#paint36_linear_1425_2327)"/>
<path d="M12.0285 11.3357C11.9424 11.1865 11.7516 11.1354 11.6023 11.2215C11.4531 11.3077 11.402 11.4985 11.4881 11.6477L12.0896 12.6894C12.1757 12.8387 12.3665 12.8898 12.5158 12.8036C12.665 12.7175 12.7161 12.5267 12.6299 12.3774L12.0285 11.3357Z" fill="url(#paint37_linear_1425_2327)"/>
<path d="M18.9113 23.2576C18.8252 23.1084 18.6344 23.0573 18.4852 23.1434C18.3359 23.2296 18.2848 23.4204 18.371 23.5696L18.9724 24.6113C19.0585 24.7606 19.2493 24.8117 19.3986 24.7255C19.5478 24.6394 19.5989 24.4486 19.5128 24.2993L18.9113 23.2576Z" fill="url(#paint38_linear_1425_2327)"/>
<path d="M21.096 15.1036L22.1377 14.5022C22.2869 14.416 22.338 14.2252 22.2519 14.076C22.1657 13.9267 21.9749 13.8756 21.8257 13.9618L20.784 14.5632C20.6348 14.6494 20.5836 14.8401 20.6698 14.9894C20.7559 15.1386 20.9467 15.1897 21.096 15.1036Z" fill="url(#paint39_linear_1425_2327)"/>
<path d="M9.90478 20.8446L8.86307 21.446C8.71388 21.5322 8.66272 21.7229 8.74888 21.8722C8.83504 22.0214 9.02582 22.0725 9.17507 21.9864L10.2168 21.385C10.366 21.2988 10.4171 21.108 10.331 20.9588C10.2448 20.8095 10.054 20.7584 9.90478 20.8446Z" fill="url(#paint40_linear_1425_2327)"/>
<path d="M19.3985 11.2215C19.2493 11.1354 19.0585 11.1865 18.9724 11.3357L18.3709 12.3774C18.2848 12.5267 18.336 12.7175 18.4851 12.8036C18.6344 12.8898 18.8252 12.8387 18.9113 12.6894L19.5127 11.6477C19.5989 11.4985 19.5478 11.3077 19.3985 11.2215Z" fill="url(#paint41_linear_1425_2327)"/>
<path d="M12.5157 23.1434C12.3665 23.0573 12.1757 23.1084 12.0895 23.2576L11.4881 24.2993C11.402 24.4486 11.4531 24.6394 11.6023 24.7255C11.7516 24.8117 11.9424 24.7605 12.0285 24.6113L12.6299 23.5696C12.7161 23.4204 12.665 23.2296 12.5157 23.1434Z" fill="url(#paint42_linear_1425_2327)"/>
<path d="M10.2168 14.5632L9.17508 13.9618C9.02583 13.8756 8.83505 13.9267 8.74889 14.076C8.66273 14.2252 8.71383 14.416 8.86308 14.5022L9.90479 15.1036C10.054 15.1897 10.2448 15.1386 10.331 14.9894C10.4171 14.8401 10.366 14.6494 10.2168 14.5632Z" fill="url(#paint43_linear_1425_2327)"/>
<path d="M22.1377 21.446L21.096 20.8446C20.9468 20.7584 20.7559 20.8096 20.6698 20.9588C20.5836 21.108 20.6347 21.2988 20.784 21.385L21.8257 21.9864C21.9749 22.0725 22.1657 22.0214 22.2519 21.8722C22.338 21.7229 22.2869 21.5322 22.1377 21.446Z" fill="url(#paint44_linear_1425_2327)"/>
<path d="M15.4997 19.0854C16.1133 19.0854 16.6107 18.5879 16.6107 17.9743C16.6107 17.3607 16.1133 16.8633 15.4997 16.8633C14.8861 16.8633 14.3887 17.3607 14.3887 17.9743C14.3887 18.5879 14.8861 19.0854 15.4997 19.0854Z" fill="url(#paint45_linear_1425_2327)"/>
<path d="M14.3887 17.9741C14.3887 18.5877 14.8861 19.0852 15.4997 19.0852C16.1133 19.0852 16.6107 18.5878 16.6107 17.9741C16.6107 17.8412 16.5873 17.7138 16.5446 17.5957H14.4549C14.4121 17.7138 14.3887 17.8413 14.3887 17.9741Z" fill="url(#paint46_linear_1425_2327)"/>
<path d="M14.7139 18.7607C15.1478 19.1946 15.8512 19.1946 16.2851 18.7607C16.719 18.3268 16.719 17.6234 16.2851 17.1895C16.1911 17.0955 16.0845 17.022 15.9707 16.9688L14.4932 18.4463C14.5464 18.56 14.6199 18.6667 14.7139 18.7607Z" fill="url(#paint47_linear_1425_2327)"/>
</g>
<defs>
<linearGradient id="paint0_linear_1425_2327" x1="7.98776" y1="27.8079" x2="9.0365" y2="28.7382" gradientUnits="userSpaceOnUse">
<stop stop-color="#5A5A5A"/>
<stop offset="1" stop-color="#444444"/>
</linearGradient>
<linearGradient id="paint1_linear_1425_2327" x1="7.75266" y1="26.2082" x2="9.4441" y2="29.4726" gradientUnits="userSpaceOnUse">
<stop stop-color="#433F43" stop-opacity="0"/>
<stop offset="1" stop-color="#1A1A1A"/>
</linearGradient>
<linearGradient id="paint2_linear_1425_2327" x1="7.47053" y1="29.7091" x2="7.47053" y2="30.8307" gradientUnits="userSpaceOnUse">
<stop stop-color="#5A5A5A"/>
<stop offset="1" stop-color="#444444"/>
</linearGradient>
<linearGradient id="paint3_linear_1425_2327" x1="9.11255" y1="30.567" x2="10.1231" y2="31.0775" gradientUnits="userSpaceOnUse">
<stop stop-color="#433F43" stop-opacity="0"/>
<stop offset="1" stop-color="#1A1A1A"/>
</linearGradient>
<linearGradient id="paint4_linear_1425_2327" x1="7.47053" y1="30.3444" x2="7.47053" y2="31.0463" gradientUnits="userSpaceOnUse">
<stop stop-color="#433F43" stop-opacity="0"/>
<stop offset="1" stop-color="#1A1A1A"/>
</linearGradient>
<linearGradient id="paint5_linear_1425_2327" x1="23.0126" y1="27.8079" x2="21.9639" y2="28.7382" gradientUnits="userSpaceOnUse">
<stop stop-color="#5A5A5A"/>
<stop offset="1" stop-color="#444444"/>
</linearGradient>
<linearGradient id="paint6_linear_1425_2327" x1="23.2477" y1="26.2082" x2="21.5563" y2="29.4726" gradientUnits="userSpaceOnUse">
<stop stop-color="#433F43" stop-opacity="0"/>
<stop offset="1" stop-color="#1A1A1A"/>
</linearGradient>
<linearGradient id="paint7_linear_1425_2327" x1="23.53" y1="29.7091" x2="23.53" y2="30.8307" gradientUnits="userSpaceOnUse">
<stop stop-color="#5A5A5A"/>
<stop offset="1" stop-color="#444444"/>
</linearGradient>
<linearGradient id="paint8_linear_1425_2327" x1="25.1721" y1="30.567" x2="26.1827" y2="31.0775" gradientUnits="userSpaceOnUse">
<stop stop-color="#433F43" stop-opacity="0"/>
<stop offset="1" stop-color="#1A1A1A"/>
</linearGradient>
<linearGradient id="paint9_linear_1425_2327" x1="23.5301" y1="30.3444" x2="23.5301" y2="31.0463" gradientUnits="userSpaceOnUse">
<stop stop-color="#433F43" stop-opacity="0"/>
<stop offset="1" stop-color="#1A1A1A"/>
</linearGradient>
<linearGradient id="paint10_linear_1425_2327" x1="15.4999" y1="0.35432" x2="15.4999" y2="3.66654" gradientUnits="userSpaceOnUse">
<stop stop-color="#F5FBFF"/>
<stop offset="1" stop-color="#DBD5EF"/>
</linearGradient>
<linearGradient id="paint11_linear_1425_2327" x1="7.75343" y1="10.2281" x2="21.7274" y2="24.202" gradientUnits="userSpaceOnUse">
<stop stop-color="#FFA1AE"/>
<stop offset="1" stop-color="#FF4565"/>
</linearGradient>
<linearGradient id="paint12_linear_1425_2327" x1="22.8497" y1="25.3233" x2="7.03146" y2="9.50515" gradientUnits="userSpaceOnUse">
<stop stop-color="#FFA1AE"/>
<stop offset="1" stop-color="#FF4565"/>
</linearGradient>
<linearGradient id="paint13_linear_1425_2327" x1="7.76088" y1="12.6678" x2="4.73953" y2="10.596" gradientUnits="userSpaceOnUse">
<stop stop-color="#FE0364" stop-opacity="0"/>
<stop offset="0.2343" stop-color="#F90362" stop-opacity="0.234"/>
<stop offset="0.5173" stop-color="#EA035B" stop-opacity="0.517"/>
<stop offset="0.8243" stop-color="#D20250" stop-opacity="0.824"/>
<stop offset="1" stop-color="#C00148"/>
</linearGradient>
<linearGradient id="paint14_linear_1425_2327" x1="15.4998" y1="18.1337" x2="15.4998" y2="33.0311" gradientUnits="userSpaceOnUse">
<stop stop-color="#FE0364" stop-opacity="0"/>
<stop offset="0.2343" stop-color="#F90362" stop-opacity="0.234"/>
<stop offset="0.5173" stop-color="#EA035B" stop-opacity="0.517"/>
<stop offset="0.8243" stop-color="#D20250" stop-opacity="0.824"/>
<stop offset="1" stop-color="#C00148"/>
</linearGradient>
<linearGradient id="paint15_linear_1425_2327" x1="15.6275" y1="18.085" x2="26.714" y2="29.1715" gradientUnits="userSpaceOnUse">
<stop stop-color="#FE0364" stop-opacity="0"/>
<stop offset="0.2343" stop-color="#F90362" stop-opacity="0.234"/>
<stop offset="0.5173" stop-color="#EA035B" stop-opacity="0.517"/>
<stop offset="0.8243" stop-color="#D20250" stop-opacity="0.824"/>
<stop offset="1" stop-color="#C00148"/>
</linearGradient>
<linearGradient id="paint16_linear_1425_2327" x1="20.9303" y1="23.4049" x2="11.1348" y2="13.6094" gradientUnits="userSpaceOnUse">
<stop stop-color="#F5FBFF"/>
<stop offset="1" stop-color="#DBD5EF"/>
</linearGradient>
<linearGradient id="paint17_linear_1425_2327" x1="14.4846" y1="15.0022" x2="12.3427" y2="8.73492" gradientUnits="userSpaceOnUse">
<stop stop-color="#DBD5EF" stop-opacity="0"/>
<stop offset="0.2853" stop-color="#D9D2EE" stop-opacity="0.285"/>
<stop offset="0.4739" stop-color="#D4C9E9" stop-opacity="0.474"/>
<stop offset="0.6346" stop-color="#CBBAE2" stop-opacity="0.635"/>
<stop offset="0.7795" stop-color="#BFA5D7" stop-opacity="0.78"/>
<stop offset="0.9126" stop-color="#AF8ACA" stop-opacity="0.913"/>
<stop offset="1" stop-color="#A274BF"/>
</linearGradient>
<linearGradient id="paint18_linear_1425_2327" x1="11.1416" y1="15.8819" x2="7.17492" y2="13.9779" gradientUnits="userSpaceOnUse">
<stop stop-color="#DBD5EF" stop-opacity="0"/>
<stop offset="0.2853" stop-color="#D9D2EE" stop-opacity="0.285"/>
<stop offset="0.4739" stop-color="#D4C9E9" stop-opacity="0.474"/>
<stop offset="0.6346" stop-color="#CBBAE2" stop-opacity="0.635"/>
<stop offset="0.7795" stop-color="#BFA5D7" stop-opacity="0.78"/>
<stop offset="0.9126" stop-color="#AF8ACA" stop-opacity="0.913"/>
<stop offset="1" stop-color="#A274BF"/>
</linearGradient>
<linearGradient id="paint19_linear_1425_2327" x1="25.3819" y1="13.0194" x2="25.5978" y2="10.8469" gradientUnits="userSpaceOnUse">
<stop stop-color="#FE0364" stop-opacity="0"/>
<stop offset="0.2343" stop-color="#F90362" stop-opacity="0.234"/>
<stop offset="0.5173" stop-color="#EA035B" stop-opacity="0.517"/>
<stop offset="0.8243" stop-color="#D20250" stop-opacity="0.824"/>
<stop offset="1" stop-color="#C00148"/>
</linearGradient>
<linearGradient id="paint20_linear_1425_2327" x1="26.0618" y1="5.03056" x2="26.2948" y2="10.9548" gradientUnits="userSpaceOnUse">
<stop stop-color="#FEF0AE"/>
<stop offset="1" stop-color="#FAC600"/>
</linearGradient>
<linearGradient id="paint21_linear_1425_2327" x1="26.8184" y1="9.60579" x2="27.0181" y2="12.5679" gradientUnits="userSpaceOnUse">
<stop stop-color="#FE9738" stop-opacity="0"/>
<stop offset="1" stop-color="#FE9738"/>
</linearGradient>
<linearGradient id="paint22_linear_1425_2327" x1="27.4497" y1="7.50836" x2="31.4435" y2="6.2436" gradientUnits="userSpaceOnUse">
<stop stop-color="#FE9738" stop-opacity="0"/>
<stop offset="1" stop-color="#FE9738"/>
</linearGradient>
<linearGradient id="paint23_linear_1425_2327" x1="4.9379" y1="5.03054" x2="4.70492" y2="10.9548" gradientUnits="userSpaceOnUse">
<stop stop-color="#FEF0AE"/>
<stop offset="1" stop-color="#FAC600"/>
</linearGradient>
<linearGradient id="paint24_linear_1425_2327" x1="4.18159" y1="9.60579" x2="3.9819" y2="12.5679" gradientUnits="userSpaceOnUse">
<stop stop-color="#FE9738" stop-opacity="0"/>
<stop offset="1" stop-color="#FE9738"/>
</linearGradient>
<linearGradient id="paint25_linear_1425_2327" x1="3.54978" y1="7.50836" x2="-0.444134" y2="6.2436" gradientUnits="userSpaceOnUse">
<stop stop-color="#FE9738" stop-opacity="0"/>
<stop offset="1" stop-color="#FE9738"/>
</linearGradient>
<linearGradient id="paint26_linear_1425_2327" x1="14.6284" y1="20.5961" x2="14.4126" y2="17.8769" gradientUnits="userSpaceOnUse">
<stop stop-color="#DBD5EF" stop-opacity="0"/>
<stop offset="0.2853" stop-color="#D9D2EE" stop-opacity="0.285"/>
<stop offset="0.4739" stop-color="#D4C9E9" stop-opacity="0.474"/>
<stop offset="0.6346" stop-color="#CBBAE2" stop-opacity="0.635"/>
<stop offset="0.7795" stop-color="#BFA5D7" stop-opacity="0.78"/>
<stop offset="0.9126" stop-color="#AF8ACA" stop-opacity="0.913"/>
<stop offset="1" stop-color="#A274BF"/>
</linearGradient>
<linearGradient id="paint27_linear_1425_2327" x1="11.564" y1="17.6553" x2="11.564" y2="18.2599" gradientUnits="userSpaceOnUse">
<stop stop-color="#B3DAFE"/>
<stop offset="1" stop-color="#0182FC"/>
</linearGradient>
<linearGradient id="paint28_linear_1425_2327" x1="18.5863" y1="20.0352" x2="14.9369" y2="18.6072" gradientUnits="userSpaceOnUse">
<stop stop-color="#DBD5EF" stop-opacity="0"/>
<stop offset="0.2853" stop-color="#D9D2EE" stop-opacity="0.285"/>
<stop offset="0.4739" stop-color="#D4C9E9" stop-opacity="0.474"/>
<stop offset="0.6346" stop-color="#CBBAE2" stop-opacity="0.635"/>
<stop offset="0.7795" stop-color="#BFA5D7" stop-opacity="0.78"/>
<stop offset="0.9126" stop-color="#AF8ACA" stop-opacity="0.913"/>
<stop offset="1" stop-color="#A274BF"/>
</linearGradient>
<linearGradient id="paint29_linear_1425_2327" x1="20.6496" y1="17.9696" x2="18.1638" y2="15.8277" gradientUnits="userSpaceOnUse">
<stop stop-color="#DBD5EF" stop-opacity="0"/>
<stop offset="0.2853" stop-color="#D9D2EE" stop-opacity="0.285"/>
<stop offset="0.4739" stop-color="#D4C9E9" stop-opacity="0.474"/>
<stop offset="0.6346" stop-color="#CBBAE2" stop-opacity="0.635"/>
<stop offset="0.7795" stop-color="#BFA5D7" stop-opacity="0.78"/>
<stop offset="0.9126" stop-color="#AF8ACA" stop-opacity="0.913"/>
<stop offset="1" stop-color="#A274BF"/>
</linearGradient>
<linearGradient id="paint30_linear_1425_2327" x1="18.0348" y1="14.4346" x2="18.9619" y2="15.3616" gradientUnits="userSpaceOnUse">
<stop stop-color="#5A5A5A"/>
<stop offset="1" stop-color="#444444"/>
</linearGradient>
<linearGradient id="paint31_linear_1425_2327" x1="17.1782" y1="16.1827" x2="16.1174" y2="17.2435" gradientUnits="userSpaceOnUse">
<stop stop-color="#433F43" stop-opacity="0"/>
<stop offset="1" stop-color="#1A1A1A"/>
</linearGradient>
<linearGradient id="paint32_linear_1425_2327" x1="18.0182" y1="19.6991" x2="17.312" y2="20.4053" gradientUnits="userSpaceOnUse">
<stop stop-color="#5A5A5A"/>
<stop offset="1" stop-color="#444444"/>
</linearGradient>
<linearGradient id="paint33_linear_1425_2327" x1="16.687" y1="19.0465" x2="15.879" y2="18.2384" gradientUnits="userSpaceOnUse">
<stop stop-color="#433F43" stop-opacity="0"/>
<stop offset="1" stop-color="#1A1A1A"/>
</linearGradient>
<linearGradient id="paint34_linear_1425_2327" x1="49.5566" y1="34.4415" x2="9.33266" y2="6.86213" gradientUnits="userSpaceOnUse">
<stop stop-color="#DBD5EF" stop-opacity="0"/>
<stop offset="0.2853" stop-color="#D9D2EE" stop-opacity="0.285"/>
<stop offset="0.4739" stop-color="#D4C9E9" stop-opacity="0.474"/>
<stop offset="0.6346" stop-color="#CBBAE2" stop-opacity="0.635"/>
<stop offset="0.7795" stop-color="#BFA5D7" stop-opacity="0.78"/>
<stop offset="0.9126" stop-color="#AF8ACA" stop-opacity="0.913"/>
<stop offset="1" stop-color="#A274BF"/>
</linearGradient>
<linearGradient id="paint35_linear_1425_2327" x1="43.1367" y1="43.8053" x2="2.91274" y2="16.226" gradientUnits="userSpaceOnUse">
<stop stop-color="#DBD5EF" stop-opacity="0"/>
<stop offset="0.2853" stop-color="#D9D2EE" stop-opacity="0.285"/>
<stop offset="0.4739" stop-color="#D4C9E9" stop-opacity="0.474"/>
<stop offset="0.6346" stop-color="#CBBAE2" stop-opacity="0.635"/>
<stop offset="0.7795" stop-color="#BFA5D7" stop-opacity="0.78"/>
<stop offset="0.9126" stop-color="#AF8ACA" stop-opacity="0.913"/>
<stop offset="1" stop-color="#A274BF"/>
</linearGradient>
<linearGradient id="paint36_linear_1425_2327" x1="48.5476" y1="35.9135" x2="8.32367" y2="8.33432" gradientUnits="userSpaceOnUse">
<stop stop-color="#DBD5EF" stop-opacity="0"/>
<stop offset="0.2853" stop-color="#D9D2EE" stop-opacity="0.285"/>
<stop offset="0.4739" stop-color="#D4C9E9" stop-opacity="0.474"/>
<stop offset="0.6346" stop-color="#CBBAE2" stop-opacity="0.635"/>
<stop offset="0.7795" stop-color="#BFA5D7" stop-opacity="0.78"/>
<stop offset="0.9126" stop-color="#AF8ACA" stop-opacity="0.913"/>
<stop offset="1" stop-color="#A274BF"/>
</linearGradient>
<linearGradient id="paint37_linear_1425_2327" x1="48.0259" y1="36.673" x2="7.80201" y2="9.09373" gradientUnits="userSpaceOnUse">
<stop stop-color="#DBD5EF" stop-opacity="0"/>
<stop offset="0.2853" stop-color="#D9D2EE" stop-opacity="0.285"/>
<stop offset="0.4739" stop-color="#D4C9E9" stop-opacity="0.474"/>
<stop offset="0.6346" stop-color="#CBBAE2" stop-opacity="0.635"/>
<stop offset="0.7795" stop-color="#BFA5D7" stop-opacity="0.78"/>
<stop offset="0.9126" stop-color="#AF8ACA" stop-opacity="0.913"/>
<stop offset="1" stop-color="#A274BF"/>
</linearGradient>
<linearGradient id="paint38_linear_1425_2327" x1="44.6673" y1="41.5729" x2="4.44338" y2="13.9936" gradientUnits="userSpaceOnUse">
<stop stop-color="#DBD5EF" stop-opacity="0"/>
<stop offset="0.2853" stop-color="#D9D2EE" stop-opacity="0.285"/>
<stop offset="0.4739" stop-color="#D4C9E9" stop-opacity="0.474"/>
<stop offset="0.6346" stop-color="#CBBAE2" stop-opacity="0.635"/>
<stop offset="0.7795" stop-color="#BFA5D7" stop-opacity="0.78"/>
<stop offset="0.9126" stop-color="#AF8ACA" stop-opacity="0.913"/>
<stop offset="1" stop-color="#A274BF"/>
</linearGradient>
<linearGradient id="paint39_linear_1425_2327" x1="49.8575" y1="34.0027" x2="9.63353" y2="6.4234" gradientUnits="userSpaceOnUse">
<stop stop-color="#DBD5EF" stop-opacity="0"/>
<stop offset="0.2853" stop-color="#D9D2EE" stop-opacity="0.285"/>
<stop offset="0.4739" stop-color="#D4C9E9" stop-opacity="0.474"/>
<stop offset="0.6346" stop-color="#CBBAE2" stop-opacity="0.635"/>
<stop offset="0.7795" stop-color="#BFA5D7" stop-opacity="0.78"/>
<stop offset="0.9126" stop-color="#AF8ACA" stop-opacity="0.913"/>
<stop offset="1" stop-color="#A274BF"/>
</linearGradient>
<linearGradient id="paint40_linear_1425_2327" x1="42.8356" y1="44.2444" x2="2.61161" y2="16.6651" gradientUnits="userSpaceOnUse">
<stop stop-color="#DBD5EF" stop-opacity="0"/>
<stop offset="0.2853" stop-color="#D9D2EE" stop-opacity="0.285"/>
<stop offset="0.4739" stop-color="#D4C9E9" stop-opacity="0.474"/>
<stop offset="0.6346" stop-color="#CBBAE2" stop-opacity="0.635"/>
<stop offset="0.7795" stop-color="#BFA5D7" stop-opacity="0.78"/>
<stop offset="0.9126" stop-color="#AF8ACA" stop-opacity="0.913"/>
<stop offset="1" stop-color="#A274BF"/>
</linearGradient>
<linearGradient id="paint41_linear_1425_2327" x1="50.2271" y1="33.4631" x2="10.0031" y2="5.88377" gradientUnits="userSpaceOnUse">
<stop stop-color="#DBD5EF" stop-opacity="0"/>
<stop offset="0.2853" stop-color="#D9D2EE" stop-opacity="0.285"/>
<stop offset="0.4739" stop-color="#D4C9E9" stop-opacity="0.474"/>
<stop offset="0.6346" stop-color="#CBBAE2" stop-opacity="0.635"/>
<stop offset="0.7795" stop-color="#BFA5D7" stop-opacity="0.78"/>
<stop offset="0.9126" stop-color="#AF8ACA" stop-opacity="0.913"/>
<stop offset="1" stop-color="#A274BF"/>
</linearGradient>
<linearGradient id="paint42_linear_1425_2327" x1="42.4661" y1="44.7829" x2="2.24222" y2="17.2036" gradientUnits="userSpaceOnUse">
<stop stop-color="#DBD5EF" stop-opacity="0"/>
<stop offset="0.2853" stop-color="#D9D2EE" stop-opacity="0.285"/>
<stop offset="0.4739" stop-color="#D4C9E9" stop-opacity="0.474"/>
<stop offset="0.6346" stop-color="#CBBAE2" stop-opacity="0.635"/>
<stop offset="0.7795" stop-color="#BFA5D7" stop-opacity="0.78"/>
<stop offset="0.9126" stop-color="#AF8ACA" stop-opacity="0.913"/>
<stop offset="1" stop-color="#A274BF"/>
</linearGradient>
<linearGradient id="paint43_linear_1425_2327" x1="46.0455" y1="39.5625" x2="5.82158" y2="11.9832" gradientUnits="userSpaceOnUse">
<stop stop-color="#DBD5EF" stop-opacity="0"/>
<stop offset="0.2853" stop-color="#D9D2EE" stop-opacity="0.285"/>
<stop offset="0.4739" stop-color="#D4C9E9" stop-opacity="0.474"/>
<stop offset="0.6346" stop-color="#CBBAE2" stop-opacity="0.635"/>
<stop offset="0.7795" stop-color="#BFA5D7" stop-opacity="0.78"/>
<stop offset="0.9126" stop-color="#AF8ACA" stop-opacity="0.913"/>
<stop offset="1" stop-color="#A274BF"/>
</linearGradient>
<linearGradient id="paint44_linear_1425_2327" x1="46.6476" y1="38.6846" x2="6.42366" y2="11.1053" gradientUnits="userSpaceOnUse">
<stop stop-color="#DBD5EF" stop-opacity="0"/>
<stop offset="0.2853" stop-color="#D9D2EE" stop-opacity="0.285"/>
<stop offset="0.4739" stop-color="#D4C9E9" stop-opacity="0.474"/>
<stop offset="0.6346" stop-color="#CBBAE2" stop-opacity="0.635"/>
<stop offset="0.7795" stop-color="#BFA5D7" stop-opacity="0.78"/>
<stop offset="0.9126" stop-color="#AF8ACA" stop-opacity="0.913"/>
<stop offset="1" stop-color="#A274BF"/>
</linearGradient>
<linearGradient id="paint45_linear_1425_2327" x1="14.8201" y1="17.2947" x2="16.0461" y2="18.5207" gradientUnits="userSpaceOnUse">
<stop stop-color="#FEF0AE"/>
<stop offset="1" stop-color="#FAC600"/>
</linearGradient>
<linearGradient id="paint46_linear_1425_2327" x1="15.4997" y1="17.9882" x2="15.4997" y2="19.2952" gradientUnits="userSpaceOnUse">
<stop stop-color="#FE9738" stop-opacity="0"/>
<stop offset="1" stop-color="#FE9738"/>
</linearGradient>
<linearGradient id="paint47_linear_1425_2327" x1="15.5242" y1="17.9816" x2="16.4968" y2="18.9543" gradientUnits="userSpaceOnUse">
<stop stop-color="#FE9738" stop-opacity="0"/>
<stop offset="1" stop-color="#FE9738"/>
</linearGradient>
<clipPath id="clip0_1425_2327">
<rect width="31" height="31" fill="white"/>
</clipPath>
</defs>
</svg>
